<?xml version="1.0" encoding="utf-8"?>
<!-- Generator: Adobe Illustrator 16.0.0, SVG Export Plug-In . SVG Version: 6.00 Build 0)  -->
<!DOCTYPE svg PUBLIC "-//W3C//DTD SVG 1.1//EN" "http://www.w3.org/Graphics/SVG/1.1/DTD/svg11.dtd">
<svg version="1.1" id="Layer_1" xmlns="http://www.w3.org/2000/svg" xmlns:xlink="http://www.w3.org/1999/xlink" x="0px" y="0px"
	 width="448.065px" height="20.337px" viewBox="53 217.228 448.065 20.337" enable-background="new 53 217.228 448.065 20.337"
	 xml:space="preserve">
<g>
	<g>
		<path fill="#FFFFFF" d="M304.4,222.3c0.1-0.1,0.1-0.1,0.199,0l4.4,10.1c0.1,0.1,0,0.2-0.1,0.2h-1c-0.101,0-0.2,0-0.2-0.101
			l-1-2.399h-4.5l-1,2.399C301.1,232.6,301.1,232.6,301,232.6h-1c-0.1,0-0.1-0.101,0-0.2L304.4,222.3z M302.8,228.9h3.5l-1.7-4
			c-0.1-0.1-0.1-0.1-0.1,0L302.8,228.9z"/>
		<path fill="#FFFFFF" d="M313.2,232.6c-0.2,0-0.3,0-0.3-0.2v-9.9c0-0.1,0-0.1,0.1-0.1h1c0.2,0,0.2,0.1,0.2,0.2v8.8
			c0,0.1,0,0.1,0.1,0.1h3.4c0.1,0,0.2,0,0.2,0.2v0.9c0,0.1,0,0.2-0.2,0.2L313.2,232.6L313.2,232.6z"/>
		<path fill="#FFFFFF" d="M324.1,232.6c-0.1,0-0.1,0-0.1-0.2v-8.8c0-0.101,0-0.101-0.1-0.101h-3.2c-0.101,0-0.101,0-0.101-0.1v-0.9
			c0-0.1,0-0.1,0.101-0.1h8c0.1,0,0.1,0,0.1,0.1v0.9c0,0.1,0,0.1-0.1,0.1h-3.2c-0.1,0-0.1,0-0.1,0.101v8.8c0,0.1,0,0.2-0.101,0.2
			H324.1z"/>
		<path fill="#FFFFFF" d="M337,222.1c2.9,0,5.3,2.399,5.3,5.3s-2.399,5.3-5.3,5.3c-3,0-5.4-2.399-5.4-5.3
			C331.7,224.5,334.1,222.1,337,222.1z M337,231.5c2.3,0,4.1-1.899,4.1-4.1c0-2.3-1.8-4.199-4.1-4.199s-4.1,1.899-4.1,4.199
			C332.9,229.701,334.8,231.5,337,231.5z"/>
		<path fill="#FFFFFF" d="M351.5,231.5c1,0,2-0.199,2.6-0.5v-3.299c0-0.101,0-0.201-0.1-0.201h-2.8c-0.101,0-0.101,0-0.101-0.199
			V226.5c0-0.1,0.101-0.199,0.2-0.199h3.9c0.2,0,0.2,0,0.2,0.199v5c0,0.2,0,0.2-0.2,0.301c-0.9,0.5-2.3,0.8-3.7,0.8
			c-3,0-5.3-2.2-5.3-5.3S348.6,222,351.6,222c1.2,0,2.4,0.301,3.4,0.801c0.1,0.1,0.2,0.1,0.2,0.199v0.9c0,0.1-0.101,0.2-0.2,0
			c-0.8-0.5-2-0.8-3.3-0.8c-2.5,0-4.2,1.899-4.2,4.2C347.4,229.701,349.2,231.5,351.5,231.5z"/>
		<path fill="#FFFFFF" d="M360.6,222.4c0-0.1,0-0.1,0.101-0.1h5.1c0.101,0,0.2,0,0.2,0.1v0.9c0,0.1,0,0.1-0.2,0.1h-4l0,0v3.2l0,0h4
			c0.101,0,0.101,0.101,0.101,0.2v0.699c0,0.201,0,0.201-0.101,0.201h-4c0,0-0.1,0-0.1,0.1v3.5l0,0h4c0.1,0,0.1,0.1,0.1,0.2v0.699
			c0,0.101-0.1,0.2-0.2,0.2h-5c-0.1,0-0.199,0-0.199-0.1v-9.9H360.6z"/>
		<path fill="#FFFFFF" d="M373.7,232.6c-0.101,0-0.101,0-0.101-0.2v-8.8c0-0.101,0-0.101-0.1-0.101h-3.2c-0.1,0-0.1,0-0.1-0.1v-0.9
			c0-0.1,0-0.1,0.1-0.1h8c0.101,0,0.101,0,0.101,0.1v0.9c0,0.1,0,0.1-0.101,0.1H375c-0.1,0-0.1,0-0.1,0.101v8.8
			c0,0.1,0,0.2-0.101,0.2H373.7z"/>
		<path fill="#FFFFFF" d="M382.9,232.6c-0.101,0-0.2,0-0.2-0.101v-10c0-0.1,0-0.199,0.1-0.199h1c0.101,0,0.101,0,0.101,0.1v4.2
			v0.101h4.6c0,0,0.1,0,0.1-0.101v-4.2c0-0.1,0.101-0.1,0.2-0.1h0.9c0.1,0,0.2,0.1,0.2,0.199v9.9c0,0.1,0,0.1-0.101,0.1H388.9
			c-0.2,0-0.2,0-0.2-0.199v-4.4c0-0.1,0-0.1-0.101-0.1H384l0,0v4.5c0,0.1,0,0.199-0.2,0.199L382.9,232.6L382.9,232.6z"/>
		<path fill="#FFFFFF" d="M394.9,222.4c0-0.1,0-0.1,0.1-0.1h5.1c0.101,0,0.2,0,0.2,0.1v0.9c0,0.1,0,0.1-0.2,0.1h-4l0,0v3.2l0,0h4
			c0.101,0,0.101,0.101,0.101,0.2v0.699c0,0.201,0,0.201-0.101,0.201H396.2c0,0-0.101,0-0.101,0.1v3.5l0,0h4
			c0.101,0,0.101,0.1,0.101,0.2v0.699c0,0.101-0.101,0.2-0.2,0.2h-5c-0.1,0-0.2,0-0.2-0.1L394.9,222.4L394.9,222.4z"/>
		<path fill="#FFFFFF" d="M407.4,222.3c2.899,0,3.699,1.1,3.699,2.9c0,1.399-0.5,2.399-1.899,2.899l3.6,4.399
			c0.101,0.101,0.101,0.2-0.1,0.2h-1.2c-0.1,0-0.2,0-0.2-0.1l-3.399-4.2h-1.4c-0.1,0-0.2,0-0.2,0.2v4c0,0.1,0,0.2-0.1,0.2h-1
			c-0.101,0-0.101,0-0.101-0.2v-9.899c0-0.101,0.101-0.201,0.2-0.201h2.101V222.3z M406.3,226.9c0,0.1,0,0.2,0.101,0.2h1
			c1.6,0,2.399-0.601,2.399-1.899c0-1.301-0.8-1.801-2.399-1.801h-0.9c-0.1,0-0.2,0-0.2,0.2V226.9L406.3,226.9z"/>
		<path fill="#FFFFFF" d="M426.4,232.7c-0.9,0-1.801-0.2-2.4-0.5c-0.1-0.1-0.1-0.1-0.1-0.2v-1c0-0.1,0.1-0.1,0.199-0.1
			c0.601,0.4,1.4,0.6,2.101,0.6c1.5,0,2.2-0.6,2.2-1.799c0-1.5-1.2-1.9-2.4-2.4c-1.1-0.5-2-1.2-2-2.801c0-1.5,1-2.399,2.8-2.399
			c0.9,0,1.601,0.2,2.101,0.5c0.1,0.101,0.1,0.101,0.1,0.2v0.9c0,0.1-0.1,0.1-0.1,0.1c-0.5-0.4-1.101-0.6-1.9-0.6
			c-1.2,0-1.7,0.6-1.7,1.399c0,1.101,0.8,1.399,1.9,1.899c1.2,0.5,2.5,1.201,2.5,3.201C429.6,231.8,428.3,232.7,426.4,232.7z"/>
		<path fill="#FFFFFF" d="M442.8,232.6c-0.1,0-0.1,0-0.1-0.2v-7.199c0-0.101-0.101-0.101-0.101,0l-3.5,4.1
			c-0.1,0.199-0.199,0.199-0.399,0l-3.5-4.1c-0.101-0.101-0.2-0.101-0.2,0.1v7.1c0,0.1,0,0.2-0.1,0.2H434c-0.1,0-0.2,0-0.2-0.2
			v-10.1c0-0.1,0.101-0.1,0.2-0.1l4.7,5.299c0.1,0.101,0.2,0.101,0.3,0l4.6-5.299c0.101-0.101,0.2-0.101,0.2,0.1v10
			c0,0.1,0,0.1-0.1,0.1L442.8,232.6L442.8,232.6z"/>
		<path fill="#FFFFFF" d="M452,222.3c0.1-0.1,0.1-0.1,0.2,0l4.399,10.1c0.101,0.1,0,0.2-0.1,0.2h-1c-0.1,0-0.2,0-0.2-0.101l-1-2.399
			h-4.5l-1,2.399c-0.1,0.101-0.1,0.101-0.2,0.101h-1c-0.1,0-0.1-0.101,0-0.2L452,222.3z M450.3,228.9h3.5l-1.7-4
			c-0.1-0.1-0.1-0.1-0.1,0L450.3,228.9z"/>
		<path fill="#FFFFFF" d="M463.1,222.3c2.9,0,3.7,1.1,3.7,2.9c0,1.399-0.5,2.399-1.899,2.899l3.6,4.399c0.1,0.101,0.1,0.2-0.1,0.2
			h-1.2c-0.101,0-0.2,0-0.2-0.1l-3.4-4.2H462.2c-0.101,0-0.2,0-0.2,0.2v4c0,0.1,0,0.2-0.1,0.2h-1c-0.101,0-0.101,0-0.101-0.2v-9.899
			c0-0.101,0.101-0.201,0.2-0.201h2.1V222.3z M462.1,226.9c0,0.1,0,0.2,0.101,0.2h1c1.6,0,2.399-0.601,2.399-1.899
			c0-1.301-0.8-1.801-2.399-1.801h-0.9c-0.1,0-0.2,0-0.2,0.2V226.9L462.1,226.9z"/>
		<path fill="#FFFFFF" d="M474.7,232.6c-0.101,0-0.101,0-0.101-0.2v-8.8c0-0.101,0-0.101-0.1-0.101h-3.2c-0.1,0-0.1,0-0.1-0.1v-0.9
			c0-0.1,0-0.1,0.1-0.1h8c0.101,0,0.101,0,0.101,0.1v0.9c0,0.1,0,0.1-0.101,0.1h-3.2c-0.1,0-0.1,0-0.1,0.101v8.8
			c0,0.1,0,0.2-0.1,0.2H474.7z"/>
		<path fill="#FFFFFF" d="M483.4,222.4c0-0.1,0-0.1,0.1-0.1h5.1c0.101,0,0.2,0,0.2,0.1v0.9c0,0.1,0,0.1-0.2,0.1h-4l0,0v3.2l0,0h4
			c0.101,0,0.101,0.101,0.101,0.2v0.699c0,0.201,0,0.201-0.101,0.201h-4c0,0-0.1,0-0.1,0.1v3.5l0,0h4c0.1,0,0.1,0.1,0.1,0.2v0.699
			c0,0.101-0.1,0.2-0.199,0.2h-5c-0.101,0-0.2,0-0.2-0.1v-9.9H483.4z"/>
		<path fill="#FFFFFF" d="M495.6,222.3c2.801,0,3.7,1.1,3.7,2.9c0,1.399-0.5,2.399-1.899,2.899l3.6,4.399c0.1,0.101,0.1,0.2-0.1,0.2
			h-1.2c-0.101,0-0.2,0-0.2-0.1l-3.4-4.2H494.7c-0.101,0-0.2,0-0.2,0.2v4c0,0.1,0,0.2-0.101,0.2h-1c-0.1,0-0.1,0-0.1-0.2v-9.899
			c0-0.101,0.1-0.201,0.2-0.201h2.1V222.3z M494.5,226.9c0,0.1,0,0.2,0.1,0.2h1c1.601,0,2.4-0.601,2.4-1.899
			c0-1.301-0.8-1.801-2.4-1.801H494.7c-0.101,0-0.2,0-0.2,0.2V226.9L494.5,226.9z"/>
	</g>
	
		<rect x="279.307" y="216.397" transform="matrix(0.9113 0.4117 -0.4117 0.9113 118.4189 -94.969)" fill="#FFFFFF" width="0.7" height="22"/>
	<g>
		<g>
			<path fill="#FFFFFF" d="M57.8,235.6c-2.2,0-3.5-0.601-4-0.9c-0.4-0.5-0.8-2.2-0.8-3.8c0.2-0.3,0.7-0.3,0.9-0.1
				c0.5,1.5,2,3.7,4,3.7c1.7,0,2.5-1.2,2.5-2.4c0-1.9-1.8-3-3.2-3.7c-1.7-0.8-3.6-2.3-3.6-4.6c0-2.7,2-4.5,5.5-4.5
				c0.8,0,1.7,0.1,2.7,0.4c0.3,0.1,0.5,0.1,0.8,0.199c0.2,0.5,0.4,1.801,0.4,3.4c-0.1,0.3-0.7,0.3-0.9,0.1
				c-0.4-1.199-1.4-2.9-3.1-2.9c-1.6,0-2.4,1-2.4,2.201c0,1.1,1,2.1,2.1,2.699l1.6,0.801c1.5,0.799,3.3,2.1,3.3,4.699
				C63.7,233.8,61.3,235.6,57.8,235.6z"/>
			<path fill="#FFFFFF" d="M84.4,220c0,0.4,0.1,2.301,0.3,3.701C84.6,224,84,224.1,83.8,223.9c-0.6-2.199-2.1-3.4-4.4-3.4
				c-2.6,0-5.4,2.201-5.4,6.9c0,4.7,2.7,7.2,5.5,7.2s4.2-2,4.8-3.6c0.2-0.2,0.8-0.101,0.9,0.199c-0.2,1.7-0.6,3.2-0.9,3.7
				c-1.3,0.4-2.9,0.9-4.8,0.9c-2.3,0-4.7-0.5-6.3-1.8c-1.7-1.301-3-3.2-3-6.2c0-2.9,1.2-4.9,2.8-6.2c1.7-1.399,4.1-2.101,6.5-2.101
				C82,219.4,83.7,219.9,84.4,220z"/>
			<path fill="#FFFFFF" d="M108.1,227.4c0,5.1-3.4,8.2-8.5,8.2c-4.7,0-8.2-3.101-8.2-8c0-4.7,3.5-8.3,8.4-8.3
				C104.8,219.4,108.1,222.6,108.1,227.4z M99.7,220.4c-2.9,0-4.4,2.7-4.4,6.6c0,2.9,1,7.5,4.8,7.5c3.1,0,4.3-3,4.3-6.799
				C104.4,223.701,102.6,220.4,99.7,220.4z"/>
			<path fill="#FFFFFF" d="M119.8,221.5c0-0.6,0-0.699-0.6-0.699h-1.5c-1.7,0-2.2,0.9-2.9,2.699c-0.3,0.101-0.7,0.101-0.9-0.199
				c0.5-1.6,0.6-3.1,0.8-4c0.1-0.1,0.2-0.1,0.3-0.1s0.2,0,0.3,0.1c0.1,0.4,0.2,0.5,2,0.5h8.8c1.6,0,1.9,0,2.1-0.5
				c0.1,0,0.2-0.1,0.3-0.1s0.3,0.1,0.4,0.199c-0.2,0.801-0.4,2.7-0.4,4c-0.1,0.2-0.8,0.301-0.9,0.1c-0.4-1.5-0.7-2.6-2.5-2.6h-1.4
				c-0.6,0-0.6,0.1-0.6,0.7V232c0,2.2,0.1,2.4,1.2,2.5l0.9,0.101c0.2,0.1,0.2,0.7,0,0.8c-1.5,0-2.7-0.1-3.8-0.1s-2.4,0-4,0.1
				c-0.2-0.1-0.2-0.7,0-0.8l1.1-0.101c1.1-0.1,1.2-0.3,1.2-2.5L119.8,221.5L119.8,221.5z"/>
			<path fill="#FFFFFF" d="M140.6,221.5c0-0.6,0-0.699-0.6-0.699h-1.5c-1.7,0-2.2,0.9-2.9,2.699c-0.3,0.101-0.7,0.101-0.9-0.199
				c0.5-1.6,0.6-3.1,0.8-4c0.1-0.1,0.2-0.1,0.3-0.1c0.1,0,0.2,0,0.3,0.1c0.1,0.4,0.2,0.5,2,0.5h8.8c1.6,0,1.9,0,2.1-0.5
				c0.1,0,0.2-0.1,0.3-0.1c0.1,0,0.3,0.1,0.4,0.199c-0.2,0.801-0.4,2.7-0.4,4c-0.1,0.2-0.8,0.301-0.9,0.1c-0.4-1.5-0.7-2.6-2.5-2.6
				h-1.4c-0.6,0-0.6,0.1-0.6,0.7V232c0,2.2,0.1,2.4,1.2,2.5l0.9,0.101c0.2,0.1,0.2,0.7,0,0.8c-1.5,0-2.7-0.1-3.8-0.1
				c-1.1,0-2.4,0-4,0.1c-0.2-0.1-0.2-0.7,0-0.8l1.1-0.101c1.1-0.1,1.2-0.3,1.2-2.5L140.6,221.5L140.6,221.5z"/>
		</g>
		<g>
			<path fill="#FFFFFF" d="M163.7,223.3c0-2.5,0-2.801-1.5-3h-0.6c-0.1-0.1-0.1-0.5,0-0.6c1.3,0,2.1,0.1,3.1,0.1
				c0.9,0,1.7,0,2.9-0.1c0.1,0.1,0.2,0.5,0,0.6H167c-1.4,0.1-1.4,0.5-1.4,3v8.199c0,1.5,0.1,2.101,0.5,2.5
				c0.3,0.301,0.7,0.5,2.6,0.5c2,0,2.5-0.1,2.9-0.3c0.5-0.3,1.1-1.1,1.6-2.3c0.1-0.1,0.6,0,0.6,0.101c0,0.3-0.7,2.699-1,3.3
				c-1.2,0-3.4-0.101-5.9-0.101h-2.2c-1,0-1.7,0-3.1,0.101c-0.1-0.101-0.2-0.4,0-0.601l0.7-0.1c1.4-0.101,1.4-0.5,1.4-2.9V223.3
				L163.7,223.3z"/>
			<path fill="#FFFFFF" d="M178.9,227.701c0-4.701,3.5-8.301,8.4-8.301c5.4,0,8.2,3.9,8.2,8.1c0,4.801-3.6,8.2-8.2,8.2
				C182.1,235.6,178.9,231.9,178.9,227.701z M193.1,228.201c0-3.9-1.7-8.101-6.2-8.101c-2.4,0-5.6,1.7-5.6,6.8c0,3.5,1.7,8,6.3,8
				C190.5,234.9,193.1,232.8,193.1,228.201z"/>
			<path fill="#FFFFFF" d="M215.6,232.9c0,0.9,0.101,1.5,0.601,1.7c0.1,0.1,0.1,0.2,0,0.3c-0.3,0-0.7,0.1-1.2,0.2
				c-1.2,0.3-2.9,0.6-4.2,0.6c-2.8,0-5.4-0.8-7.2-2.6c-1.4-1.4-2.2-3.3-2.2-5.3s0.7-4,2.1-5.6c1.6-1.601,3.9-2.801,7.5-2.801
				c1.3,0,2.6,0.301,3,0.4s1.2,0.3,1.5,0.199c0,0.801,0.1,2,0.4,3.4c-0.101,0.2-0.5,0.2-0.601,0.1c-0.7-2.5-2.399-3.299-4.8-3.299
				c-4.6,0-6.6,3.199-6.6,6.799c0,4.501,2.3,8.101,7.1,8.101c1.5,0,2.3-0.3,2.6-0.7c0.101-0.2,0.2-0.6,0.2-1.3v-0.9
				c0-2-0.1-2.1-1.5-2.3l-1-0.1c-0.2-0.1-0.2-0.5,0-0.6c0.7,0,2,0.1,3.4,0.1c0.899,0,1.7,0,2.5-0.1c0.2,0.1,0.2,0.399,0,0.6h-0.4
				c-1,0.1-1,0.8-1,2L215.6,232.9L215.6,232.9z"/>
			<path fill="#FFFFFF" d="M225.6,223.3c0-2.5,0-2.9-1.399-3H223.6c-0.1-0.1-0.1-0.5,0-0.6c1.2,0,2,0.1,3,0.1c0.9,0,1.7,0,2.9-0.1
				c0.1,0.1,0.2,0.5,0,0.6h-0.6c-1.4,0.1-1.4,0.5-1.4,3v8.399c0,2.5,0,2.8,1.4,3l0.6,0.101c0.1,0.1,0.1,0.5,0,0.6
				c-1.2,0-2-0.1-2.9-0.1c-1,0-1.8,0-3,0.1c-0.1-0.1-0.199-0.4,0-0.6l0.601-0.101c1.399-0.2,1.399-0.5,1.399-3V223.3z"/>
			<path fill="#FFFFFF" d="M238.5,221.4c1.7-1.3,3.9-2,6.4-2c1.3,0,3.1,0.301,4.199,0.6c0.301,0.101,0.4,0.101,0.7,0.101
				c0,0.5,0.101,2,0.3,3.5c-0.1,0.2-0.5,0.2-0.6,0c-0.4-1.601-1.4-3.399-4.8-3.399c-3.601,0-6.7,2.299-6.7,7.199s3.1,7.7,7,7.7
				c3,0,4.4-2,4.9-3.4c0.199-0.1,0.5-0.1,0.6,0.101c-0.2,1.2-0.8,2.8-1.1,3.2c-0.301,0-0.601,0.1-0.801,0.199
				c-0.5,0.2-2.199,0.5-3.699,0.5c-2.101,0-4.101-0.399-5.9-1.6c-1.9-1.3-3.3-3.4-3.3-6.5C235.5,225,236.7,222.701,238.5,221.4z"/>
		</g>
	</g>
</g>
</svg>
