<svg xmlns="http://www.w3.org/2000/svg" viewBox="0 0 435.8 19.8">
  <g fill="#262525">
    <path d="M243.9 5.07c.07-.14.14-.14.21 0l4.21 9.57c.06.11.05.18-.08.18h-.9c-.13 0-.17 0-.22-.12l-1-2.25h-4.29l-1 2.25c-.05.11-.08.12-.22.12h-1c-.08 0-.09-.07 0-.19zm-1.56 6.26h3.35l-1.6-3.78c-.06-.11-.09-.11-.13 0zM252.27 14.8c-.19 0-.24 0-.24-.22v-9.4c0-.09 0-.14.1-.14h.87c.15 0 .18 0 .18.19v8.36c0 .07 0 .07.07.07h3.21c.12 0 .15 0 .15.16v.81c0 .13 0 .17-.15.17zM262.64 14.8c-.12 0-.14 0-.14-.15V6.27c0-.12 0-.14-.11-.14h-3.07c-.11 0-.14 0-.14-.12v-.84c0-.1 0-.13.12-.13h7.62c.09 0 .14 0 .14.11V6c0 .1-.05.12-.14.12h-3.08c-.1 0-.12 0-.12.11v8.38c0 .13 0 .18-.11.18zM274.88 4.86a5 5 0 1 1-5.09 5.05 5.07 5.07 0 0 1 5.09-5.05zm0 9A3.94 3.94 0 1 0 271 9.91a3.92 3.92 0 0 0 3.88 3.93zM288.61 13.84a5.14 5.14 0 0 0 2.42-.49v-3.12c0-.13 0-.18-.14-.18h-2.66c-.1 0-.14-.05-.14-.16v-.78a.15.15 0 0 1 .17-.15H292c.2 0 .23 0 .23.18v4.71c0 .18 0 .23-.2.33a8.26 8.26 0 0 1-3.47.76 4.92 4.92 0 0 1-5-5 5 5 0 0 1 5.15-5 6.85 6.85 0 0 1 3.22.79c.11.06.15.1.15.21v.76c0 .1-.07.15-.22 0a6.24 6.24 0 0 0-3.21-.7 3.85 3.85 0 0 0-3.95 4 3.92 3.92 0 0 0 3.91 3.84zM297.27 5.15c0-.1 0-.11.12-.11h4.82c.14 0 .18 0 .18.13V6c0 .11 0 .14-.16.14h-3.76v3h3.78c.09 0 .13.06.13.17v.7c0 .18 0 .22-.14.22H298.44v3.31h3.8c.11 0 .11.07.11.21v.7a.16.16 0 0 1-.18.18h-4.79c-.11 0-.15 0-.15-.14zM309.7 14.8c-.11 0-.14 0-.14-.15V6.27c0-.12 0-.14-.11-.14h-3.07c-.11 0-.14 0-.14-.12v-.84c0-.1 0-.13.12-.13H314c.1 0 .14 0 .14.11V6c0 .1 0 .12-.14.12h-3.1c-.1 0-.11 0-.11.11v8.38c0 .13 0 .18-.12.18zM318.36 14.8c-.11 0-.15 0-.15-.12V5.19c0-.12 0-.15.14-.15h.92c.08 0 .12 0 .12.13v4.06h4.36c.05 0 .06 0 .06-.07v-4c0-.09.06-.13.16-.13h.86a.16.16 0 0 1 .17.18v9.44a.12.12 0 0 1-.13.14H324c-.16 0-.2 0-.2-.18v-4.2c0-.06 0-.08-.08-.08h-4.33v4.27c0 .11 0 .15-.14.15zM329.8 5.15c0-.1 0-.11.12-.11h4.81c.14 0 .19 0 .19.13V6c0 .11 0 .14-.16.14H331v3h3.78c.08 0 .13.06.13.17v.7c0 .18-.05.22-.14.22H331v3.31h3.79c.12 0 .12.07.12.21v.7a.17.17 0 0 1-.19.18H330c-.11 0-.15 0-.15-.14zM341.65 5c2.71 0 3.55 1 3.55 2.72a2.54 2.54 0 0 1-1.79 2.72l3.38 4.14c0 .07.07.18-.09.18h-1.1a.25.25 0 0 1-.22-.12l-3.27-4h-1.31c-.14 0-.15 0-.15.15v3.79c0 .1 0 .17-.13.17h-.9c-.11 0-.14 0-.14-.17V5.21c0-.14 0-.17.16-.17zm-1 4.4c0 .15 0 .17.14.17h.91c1.54 0 2.27-.53 2.27-1.75s-.76-1.73-2.29-1.73h-.88c-.14 0-.15 0-.15.15zM359.72 14.94a5.24 5.24 0 0 1-2.25-.46c-.12-.07-.14-.11-.14-.22v-.89c0-.09.07-.1.15-.06a3.69 3.69 0 0 0 2 .59c1.41 0 2.11-.59 2.11-1.73 0-1.41-1.18-1.85-2.24-2.32a2.69 2.69 0 0 1-1.92-2.65c0-1.41.92-2.3 2.63-2.3a4.22 4.22 0 0 1 2 .44.21.21 0 0 1 .11.2v.86a.08.08 0 0 1-.13.06 3 3 0 0 0-1.77-.54c-1.16 0-1.67.53-1.67 1.35 0 1 .81 1.37 1.76 1.81 1.1.52 2.36 1.15 2.36 3.06s-1.23 2.8-3 2.8zM375.24 14.8c-.11 0-.14 0-.14-.18V7.79c0-.1-.07-.09-.13 0l-3.27 3.87c-.14.15-.23.15-.34 0l-3.29-3.87c-.08-.09-.15-.06-.15.09v6.77c0 .12 0 .15-.11.15h-.87c-.14 0-.17 0-.17-.17V5.08c0-.13.12-.11.16-.07l4.46 5.05c.11.14.15.14.25 0l4.41-5c.11-.13.19-.07.19.06v9.52c0 .1 0 .14-.11.14zM383.94 5.07c.07-.14.14-.14.21 0l4.22 9.57c.05.11 0 .18-.09.18h-.9c-.13 0-.17 0-.21-.12l-1-2.25h-4.29l-1 2.25c-.05.11-.08.12-.22.12h-1c-.08 0-.09-.07 0-.19zm-1.56 6.26h3.35l-1.6-3.78c-.06-.11-.09-.11-.13 0zM394.53 5c2.71 0 3.54 1 3.54 2.72a2.53 2.53 0 0 1-1.78 2.72l3.37 4.14c.06.07.07.18-.08.18h-1.1a.24.24 0 0 1-.22-.12l-3.27-4h-1.31c-.14 0-.15 0-.15.15v3.79c0 .1 0 .17-.13.17h-.91c-.11 0-.13 0-.13-.17V5.21c0-.14.05-.17.16-.17zm-1 4.4c0 .15 0 .17.14.17h.9c1.55 0 2.28-.53 2.28-1.75s-.76-1.73-2.29-1.73h-.88c-.14 0-.15 0-.15.15zM405.48 14.8c-.11 0-.14 0-.14-.15V6.27c0-.12 0-.14-.11-.14h-3.07c-.11 0-.14 0-.14-.12v-.84c0-.1 0-.13.13-.13h7.61c.1 0 .14 0 .14.11V6c0 .1 0 .12-.14.12h-3.08c-.1 0-.11 0-.11.11v8.38c0 .13 0 .18-.11.18zM413.74 5.15c0-.1 0-.11.12-.11h4.82c.14 0 .18 0 .18.13V6c0 .11 0 .14-.16.14h-3.76v3h3.78c.09 0 .13.06.13.17v.7c0 .18 0 .22-.14.22h-3.77v3.31h3.8c.11 0 .11.07.11.21v.7a.16.16 0 0 1-.18.18h-4.79c-.11 0-.15 0-.15-.14zM425.32 5c2.7 0 3.54 1 3.54 2.72a2.54 2.54 0 0 1-1.79 2.72l3.38 4.14c.05.07.07.18-.09.18h-1.1a.25.25 0 0 1-.22-.12l-3.26-4h-1.32c-.13 0-.15 0-.15.15v3.79c0 .1 0 .17-.12.17h-.91c-.11 0-.14 0-.14-.17V5.21c0-.14.06-.17.17-.17zm-1 4.4c0 .15 0 .17.14.17h.91c1.54 0 2.27-.53 2.27-1.75s-.75-1.73-2.29-1.73h-.88c-.13 0-.15 0-.15.15z"/>
  </g>
  <path fill="#ed1c24" d="M210.375 19.017l8.58-19.003 1.759.794-8.58 19.003z"/>
  <path fill="#f68c1f" d="M212.313 19.009l8.58-19.003 1.759.794-8.58 19.003z"/>
  <path fill="#fcee1d" d="M214.247 19.01l8.58-19.003 1.76.794-8.58 19.003z"/>
  <path fill="#0c8642" d="M216.181 19.01l8.58-19.002 1.76.794-8.58 19.003z"/>
  <path fill="#3d58a7" d="M218.106 19.012l8.58-19.003 1.759.794-8.58 19.003z"/>
  <path fill="#7d2989" d="M220.044 19.004L228.624 0l1.759.794-8.58 19.003z"/>
  <g fill="#262525">
    <path d="M9.82 17.73A7.71 7.71 0 0 1 6 16.88a7.16 7.16 0 0 1-.72-3.62.56.56 0 0 1 .85-.07c.48 1.46 1.98 3.51 3.87 3.51a2.23 2.23 0 0 0 2.42-2.26c0-1.8-1.7-2.88-3-3.55C7.77 10.09 6 8.75 6 6.54 6 4 8 2.27 11.19 2.27a9 9 0 0 1 2.54.36 5.93 5.93 0 0 0 .76.18A10.76 10.76 0 0 1 14.9 6c-.12.27-.68.29-.88.07-.37-1.14-1.34-2.77-2.94-2.77A2.07 2.07 0 0 0 8.8 5.38a3.26 3.26 0 0 0 2 2.54l1.47.78a5.1 5.1 0 0 1 3.15 4.49c.03 2.75-2.22 4.54-5.6 4.54zM35.15 2.85a30.09 30.09 0 0 0 .27 3.49.62.62 0 0 1-.85.15 4.06 4.06 0 0 0-4.2-3.19c-2.48 0-5.13 2.12-5.13 6.57s2.57 6.83 5.24 6.83A4.82 4.82 0 0 0 35 13.24a.64.64 0 0 1 .85.16 10 10 0 0 1-.85 3.5 16.43 16.43 0 0 1-4.53.83 10.23 10.23 0 0 1-6-1.7 7 7 0 0 1-2.84-5.85 7.37 7.37 0 0 1 2.7-5.92 9.79 9.79 0 0 1 6.19-2 27.8 27.8 0 0 1 4.63.59zM57.62 9.93c0 4.87-3.26 7.8-8.06 7.8-4.49 0-7.75-3-7.75-7.62a7.69 7.69 0 0 1 8-7.84c4.62 0 7.81 3.13 7.81 7.66zm-8-6.63c-2.74 0-4.22 2.57-4.22 6.3 0 2.72 1 7.1 4.6 7.1 2.93 0 4.07-2.86 4.07-6.48-.02-3.82-1.7-6.92-4.47-6.92zM68.68 4.3c0-.53 0-.64-.54-.64h-1.38c-1.63 0-2.1.89-2.77 2.52a.63.63 0 0 1-.83-.2 27.84 27.84 0 0 0 .74-3.8.58.58 0 0 1 .31-.11.49.49 0 0 1 .31.09c.11.38.18.47 1.88.47h8.31c1.47 0 1.81 0 2-.49a.5.5 0 0 1 .29-.07.45.45 0 0 1 .33.16A15.75 15.75 0 0 0 77 6.07c-.11.2-.72.24-.83.07-.38-1.43-.69-2.48-2.37-2.48h-1.33c-.53 0-.6.06-.6.64v9.85c0 2.08.13 2.26 1.14 2.39l.89.12a.69.69 0 0 1 0 .78c-1.45-.05-2.57-.07-3.57-.07s-2.23 0-3.8.07a.63.63 0 0 1 0-.78l1-.12c1-.11 1.14-.31 1.14-2.39zM88.4 4.3c0-.53 0-.64-.54-.64h-1.38c-1.63 0-2.1.89-2.77 2.52a.64.64 0 0 1-.83-.2 27.84 27.84 0 0 0 .74-3.8.58.58 0 0 1 .31-.11.52.52 0 0 1 .32.09c.11.38.17.47 1.87.47h8.31c1.47 0 1.81 0 2-.49a.52.52 0 0 1 .29-.07.45.45 0 0 1 .33.16 15.75 15.75 0 0 0-.33 3.84c-.11.2-.72.24-.83.07-.38-1.43-.69-2.48-2.36-2.48H92.2c-.54 0-.61.06-.61.64v9.85c0 2.08.14 2.26 1.14 2.39l.89.12a.69.69 0 0 1 0 .78c-1.45-.05-2.56-.07-3.57-.07s-2.23 0-3.8.07a.66.66 0 0 1 0-.78l1-.12c1-.11 1.14-.31 1.14-2.39z"/>
    <g>
      <path d="M110.32 6c0-2.35 0-2.7-1.45-2.81h-.56a.44.44 0 0 1 0-.56c1.25 0 2 .07 2.9.07s1.63 0 2.75-.07c.13.07.18.47 0 .56h-.53c-1.32.11-1.37.46-1.37 2.81v7.77c0 1.41.07 2 .47 2.41.25.25.67.52 2.44.52s2.36-.09 2.72-.29a4.83 4.83 0 0 0 1.48-2.21c.13-.12.55 0 .55.13a18.12 18.12 0 0 1-.93 3.13c-1.14-.05-3.27-.07-5.57-.07h-2c-.94 0-1.65 0-2.9.07a.43.43 0 0 1 0-.56l.67-.07c1.3-.13 1.34-.44 1.34-2.79zM124.84 10.16a7.72 7.72 0 0 1 7.95-7.89 7.35 7.35 0 0 1 7.75 7.66 7.63 7.63 0 0 1-7.75 7.8c-4.96 0-7.95-3.55-7.95-7.57zm13.47.47c0-3.69-1.63-7.67-5.9-7.67-2.32 0-5.34 1.59-5.34 6.48 0 3.31 1.61 7.59 6 7.59 2.69-.03 5.24-2.03 5.24-6.4zM159.59 15.09c0 .9.14 1.43.54 1.59a.18.18 0 0 1 0 .26 4.64 4.64 0 0 0-1.09.21 17.56 17.56 0 0 1-4 .58 9.31 9.31 0 0 1-6.81-2.48 7 7 0 0 1-2-5.07 7.62 7.62 0 0 1 2-5.29c1.49-1.57 3.7-2.62 7.08-2.62a13.16 13.16 0 0 1 2.83.34 6.17 6.17 0 0 0 1.39.2 25.1 25.1 0 0 0 .33 3.24c-.06.18-.47.2-.6.06-.63-2.41-2.3-3.17-4.58-3.17-4.33 0-6.23 3.08-6.23 6.43 0 4.29 2.21 7.66 6.7 7.66 1.38 0 2.21-.29 2.46-.66a2.55 2.55 0 0 0 .22-1.28v-.89c0-1.88-.07-2-1.45-2.17l-1-.11a.37.37 0 0 1 0-.56c.64.05 1.87.07 3.19.07.87 0 1.63 0 2.37-.07a.39.39 0 0 1 0 .56l-.36.05c-.94.11-1 .73-1 1.87zM169.11 6c0-2.36-.05-2.74-1.37-2.85h-.55c-.14-.09-.09-.49 0-.56 1.12 0 1.88.07 2.82.07s1.65 0 2.76-.07a.44.44 0 0 1 .05.56h-.56c-1.32.11-1.36.49-1.36 2.85v8c0 2.36 0 2.68 1.36 2.83l.56.07a.44.44 0 0 1-.05.56c-1.11-.05-1.87-.07-2.76-.07s-1.7 0-2.82.07a.43.43 0 0 1 0-.56l.55-.07c1.32-.15 1.37-.47 1.37-2.83zM181.37 4.17a9.65 9.65 0 0 1 6-1.9 17.27 17.27 0 0 1 3.95.54 1.7 1.7 0 0 0 .63.09c0 .51.13 1.92.31 3.28a.47.47 0 0 1-.6.05c-.31-1.52-1.31-3.23-4.55-3.23-3.42 0-6.32 2.17-6.32 6.79s3 7.28 6.63 7.28a4.76 4.76 0 0 0 4.67-3.19.47.47 0 0 1 .58.09A8.62 8.62 0 0 1 191.6 17a3.9 3.9 0 0 0-.78.22 13.12 13.12 0 0 1-3.53.52 9.82 9.82 0 0 1-5.56-1.5 7.2 7.2 0 0 1-3.18-6.14 7.42 7.42 0 0 1 2.82-5.93z"/>
    </g>
  </g>
</svg>
